<svg xmlns="http://www.w3.org/2000/svg" xmlns:xlink="http://www.w3.org/1999/xlink" width="500" zoomAndPan="magnify" viewBox="0 0 375 374.999991" height="500" preserveAspectRatio="xMidYMid meet" version="1.0"><defs><clipPath id="51257cbeb0"><path d="M 165 34.65625 L 209 34.65625 L 209 129 L 165 129 Z M 165 34.65625 " clip-rule="nonzero"/></clipPath><clipPath id="a0f25a3bb2"><path d="M 52.898438 99 L 140 99 L 140 169 L 52.898438 169 Z M 52.898438 99 " clip-rule="nonzero"/></clipPath><clipPath id="7a10021a62"><path d="M 52.898438 165 L 321.042969 165 L 321.042969 275 L 52.898438 275 Z M 52.898438 165 " clip-rule="nonzero"/></clipPath><clipPath id="e6bc36fe59"><path d="M 161 271 L 213 271 L 213 340.339844 L 161 340.339844 Z M 161 271 " clip-rule="nonzero"/></clipPath></defs><g clip-path="url(#51257cbeb0)"><path fill="#4e27d5" d="M 186.957031 128.535156 C 199.046875 128.535156 208.808594 118.691406 208.808594 106.511719 L 208.808594 56.683594 C 208.808594 50.589844 206.332031 45.125 202.457031 41.21875 C 198.425781 37.15625 193 34.65625 186.957031 34.65625 C 174.871094 34.65625 165.105469 44.5 165.105469 56.683594 L 165.105469 106.511719 C 165.105469 118.691406 174.871094 128.535156 186.957031 128.535156 Z M 186.957031 128.535156 " fill-opacity="1" fill-rule="nonzero"/></g><path fill="#4e27d5" d="M 267.078125 165.863281 L 310.007812 140.871094 C 320.390625 134.78125 323.957031 121.347656 317.910156 110.882812 C 316.980469 109.164062 315.742188 107.601562 314.5 106.351562 C 307.683594 99.480469 296.988281 97.761719 288.15625 102.914062 L 245.226562 127.90625 C 234.84375 134 231.277344 147.433594 237.324219 157.898438 C 243.367188 168.363281 256.695312 171.957031 267.078125 165.863281 Z M 267.078125 165.863281 " fill-opacity="1" fill-rule="nonzero"/><g clip-path="url(#a0f25a3bb2)"><path fill="#4e27d5" d="M 63.746094 140.875 L 106.832031 166.023438 C 117.214844 172.113281 130.542969 168.523438 136.589844 158.054688 C 141.703125 149.308594 139.996094 138.375 133.179688 131.5 C 131.9375 130.253906 130.386719 129.003906 128.683594 128.066406 L 85.601562 102.917969 C 75.214844 96.824219 61.886719 100.417969 55.84375 110.882812 C 49.800781 121.347656 53.363281 134.78125 63.746094 140.875 Z M 63.746094 140.875 " fill-opacity="1" fill-rule="nonzero"/></g><g clip-path="url(#7a10021a62)"><path fill="#4e27d5" d="M 310.011719 233.65625 L 197.804688 168.210938 C 197.804688 168.210938 197.496094 168.210938 197.183594 167.898438 C 196.253906 167.429688 195.480469 167.117188 194.550781 166.648438 C 194.238281 166.648438 193.773438 166.335938 193.464844 166.179688 C 192.226562 165.710938 190.984375 165.554688 189.746094 165.242188 C 189.4375 165.242188 189.125 165.242188 188.816406 165.242188 C 187.886719 165.242188 186.800781 165.242188 185.871094 165.242188 C 185.40625 165.242188 184.941406 165.242188 184.476562 165.242188 C 183.546875 165.242188 182.773438 165.398438 181.839844 165.710938 C 181.378906 165.710938 180.914062 166.023438 180.449219 166.023438 C 179.671875 166.335938 178.898438 166.492188 178.121094 166.960938 C 177.65625 167.117188 177.191406 167.429688 176.726562 167.585938 C 176.417969 167.585938 176.261719 167.742188 175.953125 167.898438 L 63.746094 233.5 C 53.363281 239.59375 49.800781 253.027344 55.84375 263.492188 C 61.886719 273.957031 75.214844 277.550781 85.601562 271.457031 L 186.957031 212.414062 L 288.3125 271.457031 C 298.695312 277.550781 312.023438 273.957031 318.070312 263.492188 C 323.183594 254.742188 321.476562 243.808594 314.660156 236.9375 C 313.265625 235.53125 311.871094 234.4375 310.164062 233.5 Z M 310.011719 233.65625 " fill-opacity="1" fill-rule="nonzero"/></g><g clip-path="url(#e6bc36fe59)"><path fill="#4e27d5" d="M 186.953125 271.140625 C 172.851562 271.140625 161.382812 282.546875 161.074219 296.757812 L 161.074219 314.253906 C 161.074219 328.625 172.695312 340.339844 186.953125 340.339844 C 201.210938 340.339844 212.835938 328.625 212.835938 314.253906 L 212.835938 296.914062 C 212.527344 282.699219 201.058594 271.296875 186.953125 271.296875 Z M 186.953125 271.140625 " fill-opacity="1" fill-rule="nonzero"/></g></svg>