<svg xmlns="http://www.w3.org/2000/svg" xmlns:xlink="http://www.w3.org/1999/xlink" width="500" zoomAndPan="magnify" viewBox="0 0 375 83.249999" height="111" preserveAspectRatio="xMidYMid meet" version="1.0"><defs><clipPath id="497db50e43"><path d="M 51 17 L 74.355469 17 L 74.355469 37 L 51 37 Z M 51 17 " clip-rule="nonzero"/></clipPath><clipPath id="263fca0fba"><path d="M 2.257812 17 L 26 17 L 26 37 L 2.257812 37 Z M 2.257812 17 " clip-rule="nonzero"/></clipPath><clipPath id="a2bcab4cf2"><path d="M 2.257812 35 L 74.355469 35 L 74.355469 65 L 2.257812 65 Z M 2.257812 35 " clip-rule="nonzero"/></clipPath><clipPath id="e1ddf1d132"><path d="M 31 63 L 46 63 L 46 82.503906 L 31 82.503906 Z M 31 63 " clip-rule="nonzero"/></clipPath></defs><path fill="#4e27d5" d="M 38.4375 25.339844 C 41.703125 25.339844 44.335938 22.683594 44.335938 19.394531 L 44.335938 5.945312 C 44.335938 4.300781 43.667969 2.824219 42.621094 1.773438 C 41.535156 0.675781 40.070312 0 38.4375 0 C 35.175781 0 32.542969 2.65625 32.542969 5.945312 L 32.542969 19.394531 C 32.542969 22.683594 35.175781 25.339844 38.4375 25.339844 Z M 38.4375 25.339844 " fill-opacity="1" fill-rule="nonzero"/><g clip-path="url(#497db50e43)"><path fill="#4e27d5" d="M 60.0625 35.414062 L 71.652344 28.667969 C 74.453125 27.023438 75.414062 23.398438 73.785156 20.574219 C 73.53125 20.109375 73.199219 19.6875 72.863281 19.351562 C 71.023438 17.496094 68.136719 17.03125 65.753906 18.425781 L 54.167969 25.167969 C 51.363281 26.8125 50.402344 30.4375 52.03125 33.265625 C 53.664062 36.089844 57.261719 37.058594 60.0625 35.414062 Z M 60.0625 35.414062 " fill-opacity="1" fill-rule="nonzero"/></g><g clip-path="url(#263fca0fba)"><path fill="#4e27d5" d="M 5.183594 28.667969 L 16.8125 35.457031 C 19.617188 37.101562 23.214844 36.132812 24.84375 33.304688 C 26.226562 30.945312 25.765625 27.996094 23.925781 26.140625 C 23.589844 25.800781 23.171875 25.464844 22.710938 25.210938 L 11.082031 18.425781 C 8.28125 16.78125 4.683594 17.75 3.050781 20.574219 C 1.421875 23.398438 2.382812 27.023438 5.183594 28.667969 Z M 5.183594 28.667969 " fill-opacity="1" fill-rule="nonzero"/></g><g clip-path="url(#a2bcab4cf2)"><path fill="#4e27d5" d="M 71.652344 53.710938 L 41.367188 36.046875 C 41.367188 36.046875 41.285156 36.046875 41.199219 35.960938 C 40.949219 35.835938 40.738281 35.75 40.488281 35.625 C 40.40625 35.625 40.28125 35.539062 40.195312 35.5 C 39.859375 35.371094 39.527344 35.332031 39.191406 35.246094 C 39.109375 35.246094 39.023438 35.246094 38.941406 35.246094 C 38.691406 35.246094 38.398438 35.246094 38.144531 35.246094 C 38.019531 35.246094 37.894531 35.246094 37.769531 35.246094 C 37.519531 35.246094 37.308594 35.289062 37.058594 35.371094 C 36.933594 35.371094 36.808594 35.457031 36.683594 35.457031 C 36.472656 35.539062 36.265625 35.582031 36.054688 35.710938 C 35.929688 35.75 35.804688 35.835938 35.679688 35.878906 C 35.59375 35.878906 35.554688 35.921875 35.46875 35.960938 L 5.183594 53.667969 C 2.382812 55.3125 1.421875 58.9375 3.050781 61.765625 C 4.683594 64.589844 8.28125 65.558594 11.082031 63.914062 L 38.4375 47.976562 L 65.796875 63.914062 C 68.597656 65.558594 72.195312 64.589844 73.828125 61.765625 C 75.207031 59.402344 74.746094 56.453125 72.90625 54.597656 C 72.53125 54.21875 72.152344 53.921875 71.691406 53.667969 Z M 71.652344 53.710938 " fill-opacity="1" fill-rule="nonzero"/></g><g clip-path="url(#e1ddf1d132)"><path fill="#4e27d5" d="M 38.4375 63.828125 C 34.632812 63.828125 31.535156 66.90625 31.453125 70.742188 L 31.453125 75.464844 C 31.453125 79.34375 34.589844 82.503906 38.4375 82.503906 C 42.285156 82.503906 45.425781 79.34375 45.425781 75.464844 L 45.425781 70.785156 C 45.339844 66.949219 42.246094 63.871094 38.4375 63.871094 Z M 38.4375 63.828125 " fill-opacity="1" fill-rule="nonzero"/></g><path fill="#ffffff" d="M 98.617188 55.160156 C 97.121094 55.160156 95.941406 54.726562 95.074219 53.859375 C 94.207031 52.988281 93.773438 51.808594 93.773438 50.3125 L 93.773438 23.375 C 94.152344 23.304688 94.761719 23.21875 95.59375 23.113281 C 96.429688 22.976562 97.226562 22.90625 97.992188 22.90625 C 98.789062 22.90625 99.484375 22.976562 100.074219 23.113281 C 100.699219 23.21875 101.21875 23.425781 101.636719 23.738281 C 102.054688 24.050781 102.367188 24.484375 102.574219 25.042969 C 102.78125 25.597656 102.886719 26.328125 102.886719 27.230469 L 102.886719 47.8125 L 114.8125 47.8125 C 115.058594 48.195312 115.28125 48.714844 115.492188 49.375 C 115.699219 50 115.804688 50.660156 115.804688 51.355469 C 115.804688 52.746094 115.507812 53.734375 114.917969 54.328125 C 114.328125 54.882812 113.546875 55.160156 112.574219 55.160156 Z M 118.78125 30.042969 C 119.128906 29.941406 119.664062 29.835938 120.394531 29.730469 C 121.160156 29.628906 121.941406 29.574219 122.738281 29.574219 C 123.503906 29.574219 124.179688 29.628906 124.769531 29.730469 C 125.394531 29.835938 125.914062 30.042969 126.332031 30.355469 C 126.75 30.667969 127.0625 31.105469 127.269531 31.660156 C 127.511719 32.179688 127.632812 32.875 127.632812 33.742188 L 127.632812 44.945312 C 127.632812 46.371094 127.980469 47.394531 128.675781 48.023438 C 129.371094 48.613281 130.378906 48.90625 131.695312 48.90625 C 132.496094 48.90625 133.136719 48.839844 133.625 48.699219 C 134.144531 48.558594 134.542969 48.421875 134.820312 48.28125 L 134.820312 30.042969 C 135.167969 29.941406 135.707031 29.835938 136.4375 29.730469 C 137.199219 29.628906 137.980469 29.574219 138.78125 29.574219 C 139.542969 29.574219 140.222656 29.628906 140.8125 29.730469 C 141.4375 29.835938 141.957031 30.042969 142.375 30.355469 C 142.789062 30.667969 143.101562 31.105469 143.3125 31.660156 C 143.554688 32.179688 143.675781 32.875 143.675781 33.742188 L 143.675781 49.585938 C 143.675781 51.320312 142.945312 52.625 141.488281 53.492188 C 140.273438 54.257812 138.816406 54.832031 137.113281 55.210938 C 135.445312 55.628906 133.625 55.835938 131.644531 55.835938 C 129.769531 55.835938 128.035156 55.628906 126.4375 55.210938 C 124.875 54.796875 123.519531 54.152344 122.375 53.285156 C 121.226562 52.417969 120.34375 51.304688 119.71875 49.949219 C 119.09375 48.558594 118.78125 46.894531 118.78125 44.945312 Z M 161.230469 28.898438 C 162.652344 28.898438 164.042969 29.105469 165.394531 29.523438 C 166.785156 29.90625 167.984375 30.496094 168.988281 31.292969 C 170.03125 30.601562 171.195312 30.027344 172.480469 29.574219 C 173.796875 29.125 175.378906 28.898438 177.21875 28.898438 C 178.539062 28.898438 179.824219 29.070312 181.074219 29.417969 C 182.355469 29.765625 183.484375 30.320312 184.457031 31.085938 C 185.464844 31.816406 186.261719 32.804688 186.855469 34.054688 C 187.445312 35.273438 187.738281 36.765625 187.738281 38.539062 L 187.738281 54.953125 C 187.390625 55.054688 186.835938 55.160156 186.074219 55.265625 C 185.34375 55.367188 184.578125 55.421875 183.78125 55.421875 C 183.015625 55.421875 182.324219 55.367188 181.699219 55.265625 C 181.105469 55.160156 180.605469 54.953125 180.1875 54.640625 C 179.769531 54.328125 179.441406 53.910156 179.199219 53.390625 C 178.988281 52.832031 178.886719 52.121094 178.886719 51.253906 L 178.886719 38.796875 C 178.886719 37.757812 178.589844 37.007812 178 36.558594 C 177.410156 36.070312 176.609375 35.828125 175.605469 35.828125 C 175.117188 35.828125 174.597656 35.949219 174.042969 36.191406 C 173.484375 36.402344 173.070312 36.628906 172.792969 36.871094 C 172.828125 37.007812 172.84375 37.148438 172.84375 37.289062 C 172.84375 37.390625 172.84375 37.496094 172.84375 37.601562 L 172.84375 54.953125 C 172.460938 55.054688 171.890625 55.160156 171.125 55.265625 C 170.394531 55.367188 169.648438 55.421875 168.886719 55.421875 C 168.121094 55.421875 167.425781 55.367188 166.800781 55.265625 C 166.210938 55.160156 165.707031 54.953125 165.292969 54.640625 C 164.875 54.328125 164.546875 53.910156 164.300781 53.390625 C 164.09375 52.832031 163.988281 52.121094 163.988281 51.253906 L 163.988281 38.796875 C 163.988281 37.757812 163.660156 37.007812 163 36.558594 C 162.375 36.070312 161.609375 35.828125 160.707031 35.828125 C 160.082031 35.828125 159.546875 35.933594 159.09375 36.140625 C 158.640625 36.316406 158.261719 36.488281 157.949219 36.660156 L 157.949219 54.953125 C 157.601562 55.054688 157.046875 55.160156 156.28125 55.265625 C 155.550781 55.367188 154.789062 55.421875 153.988281 55.421875 C 153.226562 55.421875 152.53125 55.367188 151.90625 55.265625 C 151.316406 55.160156 150.8125 54.953125 150.394531 54.640625 C 149.980469 54.328125 149.648438 53.910156 149.40625 53.390625 C 149.199219 52.832031 149.09375 52.121094 149.09375 51.253906 L 149.09375 35.515625 C 149.09375 34.578125 149.285156 33.832031 149.667969 33.273438 C 150.082031 32.71875 150.640625 32.199219 151.332031 31.710938 C 152.515625 30.878906 153.972656 30.199219 155.707031 29.679688 C 157.480469 29.160156 159.320312 28.898438 161.230469 28.898438 Z M 219.335938 42.34375 C 219.335938 44.496094 219.007812 46.421875 218.347656 48.125 C 217.6875 49.792969 216.75 51.199219 215.535156 52.347656 C 214.355469 53.492188 212.929688 54.363281 211.265625 54.953125 C 209.597656 55.542969 207.742188 55.835938 205.691406 55.835938 C 203.644531 55.835938 201.785156 55.523438 200.117188 54.898438 C 198.453125 54.273438 197.011719 53.390625 195.796875 52.242188 C 194.617188 51.0625 193.695312 49.636719 193.035156 47.96875 C 192.375 46.300781 192.046875 44.425781 192.046875 42.34375 C 192.046875 40.292969 192.375 38.433594 193.035156 36.765625 C 193.695312 35.097656 194.617188 33.691406 195.796875 32.546875 C 197.011719 31.363281 198.453125 30.460938 200.117188 29.835938 C 201.785156 29.210938 203.644531 28.898438 205.691406 28.898438 C 207.742188 28.898438 209.597656 29.226562 211.265625 29.886719 C 212.929688 30.511719 214.355469 31.417969 215.535156 32.597656 C 216.75 33.742188 217.6875 35.152344 218.347656 36.820312 C 219.007812 38.484375 219.335938 40.328125 219.335938 42.34375 Z M 201.109375 42.34375 C 201.109375 44.460938 201.507812 46.09375 202.304688 47.238281 C 203.140625 48.351562 204.285156 48.90625 205.742188 48.90625 C 207.203125 48.90625 208.3125 48.335938 209.078125 47.1875 C 209.875 46.042969 210.273438 44.425781 210.273438 42.34375 C 210.273438 40.257812 209.875 38.660156 209.078125 37.546875 C 208.277344 36.402344 207.148438 35.828125 205.691406 35.828125 C 204.234375 35.828125 203.105469 36.402344 202.304688 37.546875 C 201.507812 38.660156 201.109375 40.257812 201.109375 42.34375 Z M 245.011719 47.449219 C 245.011719 50.089844 244.023438 52.15625 242.042969 53.648438 C 240.0625 55.144531 237.148438 55.890625 233.292969 55.890625 C 231.835938 55.890625 230.480469 55.785156 229.230469 55.578125 C 227.980469 55.367188 226.902344 55.054688 226 54.640625 C 225.132812 54.1875 224.4375 53.632812 223.917969 52.972656 C 223.433594 52.3125 223.1875 51.53125 223.1875 50.628906 C 223.1875 49.792969 223.363281 49.097656 223.710938 48.542969 C 224.058594 47.953125 224.472656 47.464844 224.960938 47.082031 C 225.964844 47.640625 227.113281 48.144531 228.398438 48.59375 C 229.714844 49.011719 231.226562 49.21875 232.929688 49.21875 C 234.003906 49.21875 234.820312 49.0625 235.375 48.75 C 235.964844 48.4375 236.261719 48.023438 236.261719 47.5 C 236.261719 47.015625 236.054688 46.632812 235.636719 46.355469 C 235.21875 46.078125 234.523438 45.851562 233.554688 45.675781 L 231.992188 45.363281 C 228.96875 44.773438 226.710938 43.851562 225.21875 42.601562 C 223.761719 41.316406 223.03125 39.492188 223.03125 37.132812 C 223.03125 35.84375 223.308594 34.683594 223.867188 33.640625 C 224.421875 32.597656 225.203125 31.730469 226.210938 31.035156 C 227.214844 30.339844 228.414062 29.800781 229.804688 29.417969 C 231.226562 29.035156 232.789062 28.847656 234.492188 28.847656 C 235.773438 28.847656 236.972656 28.949219 238.085938 29.160156 C 239.230469 29.332031 240.21875 29.609375 241.054688 29.992188 C 241.886719 30.375 242.546875 30.878906 243.03125 31.503906 C 243.519531 32.09375 243.761719 32.804688 243.761719 33.640625 C 243.761719 34.4375 243.605469 35.132812 243.292969 35.722656 C 243.015625 36.28125 242.648438 36.75 242.199219 37.132812 C 241.921875 36.957031 241.503906 36.785156 240.949219 36.609375 C 240.394531 36.402344 239.785156 36.226562 239.125 36.089844 C 238.464844 35.914062 237.789062 35.777344 237.09375 35.671875 C 236.433594 35.566406 235.828125 35.515625 235.273438 35.515625 C 234.125 35.515625 233.242188 35.65625 232.617188 35.933594 C 231.992188 36.175781 231.679688 36.574219 231.679688 37.132812 C 231.679688 37.511719 231.851562 37.824219 232.199219 38.070312 C 232.546875 38.3125 233.207031 38.539062 234.179688 38.746094 L 235.792969 39.109375 C 239.125 39.875 241.488281 40.933594 242.875 42.289062 C 244.300781 43.609375 245.011719 45.328125 245.011719 47.449219 Z M 268.730469 54.953125 C 268.347656 55.019531 267.773438 55.109375 267.011719 55.210938 C 266.28125 55.351562 265.535156 55.421875 264.769531 55.421875 C 264.007812 55.421875 263.3125 55.367188 262.6875 55.265625 C 262.097656 55.160156 261.59375 54.953125 261.175781 54.640625 C 260.761719 54.328125 260.429688 53.910156 260.1875 53.390625 C 259.980469 52.832031 259.875 52.121094 259.875 51.253906 L 259.875 21.03125 C 260.257812 20.960938 260.8125 20.875 261.542969 20.769531 C 262.304688 20.628906 263.070312 20.5625 263.832031 20.5625 C 264.597656 20.5625 265.273438 20.613281 265.863281 20.71875 C 266.488281 20.820312 267.011719 21.03125 267.425781 21.34375 C 267.84375 21.65625 268.15625 22.089844 268.363281 22.644531 C 268.609375 23.167969 268.730469 23.859375 268.730469 24.730469 Z M 300.515625 42.34375 C 300.515625 44.496094 300.183594 46.421875 299.523438 48.125 C 298.863281 49.792969 297.925781 51.199219 296.710938 52.347656 C 295.53125 53.492188 294.109375 54.363281 292.441406 54.953125 C 290.773438 55.542969 288.917969 55.835938 286.867188 55.835938 C 284.820312 55.835938 282.960938 55.523438 281.296875 54.898438 C 279.628906 54.273438 278.1875 53.390625 276.972656 52.242188 C 275.792969 51.0625 274.871094 49.636719 274.210938 47.96875 C 273.550781 46.300781 273.222656 44.425781 273.222656 42.34375 C 273.222656 40.292969 273.550781 38.433594 274.210938 36.765625 C 274.871094 35.097656 275.792969 33.691406 276.972656 32.546875 C 278.1875 31.363281 279.628906 30.460938 281.296875 29.835938 C 282.960938 29.210938 284.820312 28.898438 286.867188 28.898438 C 288.917969 28.898438 290.773438 29.226562 292.441406 29.886719 C 294.109375 30.511719 295.53125 31.417969 296.710938 32.597656 C 297.925781 33.742188 298.863281 35.152344 299.523438 36.820312 C 300.183594 38.484375 300.515625 40.328125 300.515625 42.34375 Z M 282.285156 42.34375 C 282.285156 44.460938 282.683594 46.09375 283.484375 47.238281 C 284.316406 48.351562 285.460938 48.90625 286.921875 48.90625 C 288.378906 48.90625 289.488281 48.335938 290.253906 47.1875 C 291.050781 46.042969 291.453125 44.425781 291.453125 42.34375 C 291.453125 40.257812 291.050781 38.660156 290.253906 37.546875 C 289.453125 36.402344 288.328125 35.828125 286.867188 35.828125 C 285.410156 35.828125 284.28125 36.402344 283.484375 37.546875 C 282.683594 38.660156 282.285156 40.257812 282.285156 42.34375 Z M 317.175781 28.898438 C 319.15625 28.898438 320.941406 29.160156 322.539062 29.679688 C 324.171875 30.164062 325.542969 30.808594 326.65625 31.609375 C 327.347656 32.09375 327.886719 32.632812 328.269531 33.222656 C 328.6875 33.8125 328.894531 34.578125 328.894531 35.515625 L 328.894531 53.753906 C 328.894531 55.59375 328.546875 57.175781 327.851562 58.496094 C 327.160156 59.851562 326.203125 60.960938 324.988281 61.832031 C 323.808594 62.734375 322.402344 63.394531 320.769531 63.808594 C 319.171875 64.226562 317.453125 64.4375 315.613281 64.4375 C 312.453125 64.4375 309.972656 64 308.164062 63.132812 C 306.359375 62.300781 305.457031 60.925781 305.457031 59.015625 C 305.457031 58.21875 305.613281 57.503906 305.925781 56.878906 C 306.273438 56.289062 306.65625 55.835938 307.070312 55.523438 C 308.078125 56.082031 309.207031 56.550781 310.457031 56.933594 C 311.742188 57.3125 313.0625 57.503906 314.414062 57.503906 C 316.289062 57.503906 317.785156 57.191406 318.894531 56.566406 C 320.003906 55.941406 320.5625 54.933594 320.5625 53.546875 L 320.5625 52.710938 C 319.136719 53.335938 317.402344 53.648438 315.351562 53.648438 C 313.789062 53.648438 312.296875 53.421875 310.875 52.972656 C 309.484375 52.484375 308.253906 51.757812 307.175781 50.785156 C 306.132812 49.777344 305.285156 48.492188 304.625 46.925781 C 304 45.363281 303.6875 43.503906 303.6875 41.351562 C 303.6875 39.234375 304.015625 37.390625 304.675781 35.828125 C 305.371094 34.265625 306.308594 32.980469 307.488281 31.972656 C 308.703125 30.929688 310.128906 30.164062 311.757812 29.679688 C 313.425781 29.160156 315.230469 28.898438 317.175781 28.898438 Z M 320.40625 36.453125 C 320.160156 36.316406 319.796875 36.175781 319.3125 36.035156 C 318.859375 35.898438 318.285156 35.828125 317.59375 35.828125 C 315.890625 35.828125 314.605469 36.316406 313.738281 37.289062 C 312.90625 38.226562 312.488281 39.582031 312.488281 41.351562 C 312.488281 43.367188 312.90625 44.824219 313.738281 45.730469 C 314.605469 46.597656 315.699219 47.03125 317.019531 47.03125 C 318.441406 47.03125 319.570312 46.703125 320.40625 46.042969 Z M 334.175781 22.644531 C 334.175781 21.324219 334.609375 20.214844 335.476562 19.308594 C 336.378906 18.40625 337.558594 17.957031 339.019531 17.957031 C 340.476562 17.957031 341.640625 18.40625 342.507812 19.308594 C 343.410156 20.214844 343.863281 21.324219 343.863281 22.644531 C 343.863281 23.964844 343.410156 25.078125 342.507812 25.980469 C 341.640625 26.882812 340.476562 27.335938 339.019531 27.335938 C 337.558594 27.335938 336.378906 26.882812 335.476562 25.980469 C 334.609375 25.078125 334.175781 23.964844 334.175781 22.644531 Z M 343.445312 54.953125 C 343.0625 55.019531 342.492188 55.109375 341.726562 55.210938 C 340.996094 55.351562 340.25 55.421875 339.488281 55.421875 C 338.722656 55.421875 338.027344 55.367188 337.402344 55.265625 C 336.8125 55.160156 336.308594 54.953125 335.894531 54.640625 C 335.476562 54.328125 335.148438 53.910156 334.902344 53.390625 C 334.695312 52.832031 334.589844 52.121094 334.589844 51.253906 L 334.589844 30.042969 C 334.972656 29.976562 335.527344 29.886719 336.257812 29.785156 C 337.023438 29.644531 337.785156 29.574219 338.550781 29.574219 C 339.3125 29.574219 339.992188 29.628906 340.582031 29.730469 C 341.207031 29.835938 341.726562 30.042969 342.144531 30.355469 C 342.558594 30.667969 342.871094 31.105469 343.082031 31.660156 C 343.324219 32.179688 343.445312 32.875 343.445312 33.742188 Z M 363.351562 35.878906 C 362.484375 35.878906 361.652344 36.019531 360.851562 36.296875 C 360.089844 36.574219 359.410156 36.992188 358.820312 37.546875 C 358.265625 38.070312 357.816406 38.730469 357.46875 39.527344 C 357.121094 40.328125 356.945312 41.265625 356.945312 42.34375 C 356.945312 44.496094 357.554688 46.109375 358.769531 47.1875 C 360.019531 48.265625 361.53125 48.804688 363.300781 48.804688 C 364.34375 48.804688 365.246094 48.683594 366.007812 48.4375 C 366.773438 48.195312 367.449219 47.933594 368.039062 47.65625 C 368.734375 48.144531 369.253906 48.683594 369.601562 49.273438 C 369.949219 49.828125 370.125 50.503906 370.125 51.304688 C 370.125 52.730469 369.445312 53.839844 368.09375 54.640625 C 366.738281 55.402344 364.863281 55.785156 362.46875 55.785156 C 360.28125 55.785156 358.300781 55.472656 356.53125 54.847656 C 354.757812 54.1875 353.230469 53.285156 351.945312 52.136719 C 350.695312 50.957031 349.722656 49.550781 349.03125 47.917969 C 348.335938 46.285156 347.988281 44.476562 347.988281 42.5 C 347.988281 40.207031 348.351562 38.207031 349.082031 36.503906 C 349.847656 34.769531 350.871094 33.34375 352.15625 32.234375 C 353.441406 31.121094 354.914062 30.289062 356.582031 29.730469 C 358.285156 29.175781 360.070312 28.898438 361.945312 28.898438 C 364.445312 28.898438 366.375 29.347656 367.726562 30.253906 C 369.082031 31.15625 369.757812 32.320312 369.757812 33.742188 C 369.757812 34.402344 369.601562 35.03125 369.289062 35.621094 C 368.976562 36.175781 368.613281 36.660156 368.195312 37.078125 C 367.605469 36.800781 366.894531 36.539062 366.0625 36.296875 C 365.226562 36.019531 364.324219 35.878906 363.351562 35.878906 Z M 363.351562 35.878906 " fill-opacity="1" fill-rule="nonzero"/></svg>